<?xml version="1.0" encoding="utf-8"?>
<!-- Generator: Adobe Illustrator 22.0.1, SVG Export Plug-In . SVG Version: 6.00 Build 0)  -->
<svg version="1.1" id="EFahrer_Logo" xmlns="http://www.w3.org/2000/svg" xmlns:xlink="http://www.w3.org/1999/xlink" x="0px"
	 y="0px" viewBox="0 0 1474 204.1" style="enable-background:new 0 0 1474 204.1;" xml:space="preserve">
<style type="text/css">
	.st0{fill:#FF9800;}
	.st1{fill:#1D1F3D;}
</style>
<g id="EFahrer">
	<polygon id="E_1_" class="st0" points="349.2,146.7 289.1,146.7 289.1,114.9 337.3,114.9 337.3,93.9 289.1,93.9 289.1,64 345.2,64 
		345.2,41.5 263.9,41.5 263.9,169 349.2,169 	"/>
	<path id="Fahrer" class="st1" d="M369.7,169h25.7v-46.9h46.7v-23h-46.7V64.7H450V41.5h-80.3V169z M517,39.9
		c-34.7,0-50.8,18.4-50.8,45.8v83.4h25.9v-39.1h49.7v39.1h25.9V85.7C567.7,58.2,551.8,39.9,517,39.9z M541.8,107.3h-49.7V87.4
		c0-15.3,6.6-25,24.8-25c18.3,0,24.8,9.7,24.8,25V107.3L541.8,107.3z M670.2,169h25.7V41.5h-25.7v50.9h-49.7V41.5h-25.7V169h25.7
		v-53.3h49.7V169z M824.6,86.1v-5.5c0-23-15-39.1-49.1-39.1h-50.8v127.6h25.7v-43.1h25.9l21.5,43.1h28.7l-25.9-48
		C816.9,115.1,824.6,103.4,824.6,86.1z M798.9,85.5c0,12.8-7.5,19.5-24.3,19.5h-24.1V64.2h24.1c17,0,24.3,7.3,24.3,20.6V85.5z
		 M932.7,146.7h-59.9v-31.8H921v-21h-48.2V64h56V41.5h-81.2V169h85.1V146.7z M1026.5,169h28.7l-25.9-48c16.2-6,23.9-17.7,23.9-35.1
		v-5.5c0-23-15-39.1-49.1-39.1h-50.8V169H979v-43.1h25.9L1026.5,169z M979,105.1V64.2h24.1c17,0,24.3,7.3,24.3,20.6v0.9
		c0,12.8-7.5,19.5-24.3,19.5H979V105.1z M1087.1,170.8c7.5,0,11.9-4.7,11.9-12.4c0-8-4.4-12.6-11.9-12.6h-6.4
		c-7.5,0-11.9,4.6-11.9,12.6c0,7.7,4.4,12.4,11.9,12.4H1087.1z M1201.2,128.3h-24.6v3.1c0,10-4.7,16.6-18.1,16.6
		c-13.5,0-18.1-6.9-18.1-17v-27.4c0-10,4.6-17,18.3-17c13.1,0,17.9,6.6,17.9,16.6v3.5h24.6v-6c0-20.8-13.7-36.7-42.5-36.7
		c-29.8,0-43.4,16.1-43.4,36.7v33.4c0,20.8,13.7,36.5,43.3,36.5c29,0,42.7-15.9,42.7-36.5V128.3L1201.2,128.3z M1262.9,64
		c-30.7,0-44.9,16.8-44.9,37.1v32.9c0,20.3,14.2,36.7,44.9,36.7c30.5,0,44.9-16.4,44.9-36.7v-32.9C1307.8,80.8,1293.4,64,1262.9,64z
		 M1282.1,130.3c0,10.8-5.1,17.7-19,17.7s-19-6.9-19-17.7v-26.1c0-10.6,5.1-17.7,19-17.7c13.9,0,19,7.1,19,17.7V130.3z M1433.8,64
		c-17.2,0-26.5,4.4-33.6,12.8c-6.8-8.4-16.2-12.8-33.6-12.8c-26.7,0-38.7,14.1-38.7,34.9v70.3h25.9v-67.4c0-8.9,4.6-15.2,16.8-15.2
		c11.9,0,16.6,6.2,16.6,15.2v67.4h25.9v-67.4c0-8.9,4.6-15.2,16.8-15.2c12,0,16.8,6.2,16.8,15.2v67.4h25.7V98.9
		C1472.7,78.1,1460.8,64,1433.8,64z"/>
</g>
<path id="Bild" class="st0" d="M188.5,118.4c0-1,0-2,0-2.9c0-0.2,0-0.3,0-0.5c0-1-0.1-2-0.2-2.9c-0.1-1.2-0.2-2.3-0.3-3.5
	c-0.1-0.7-0.2-1.4-0.3-2.2c-0.1-0.4-0.1-0.8-0.2-1.2c-0.1-0.5-0.2-1-0.3-1.4c-0.3-1.7-0.7-3.4-1.1-5.1c-0.3-1.3-0.7-2.5-1.1-3.8
	c0-0.1-0.1-0.2-0.1-0.3c-0.3-0.9-0.6-1.8-0.9-2.8c-0.2-0.5-0.4-1.1-0.6-1.6c-0.2-0.5-0.4-1.1-0.6-1.6c-0.2-0.4-0.3-0.8-0.5-1.1
	c-0.2-0.5-0.5-1.1-0.7-1.6c-0.1-0.2-0.2-0.4-0.3-0.6c-0.1-0.3-0.3-0.5-0.4-0.8c-0.3-0.7-0.7-1.4-1-2.1c-0.4-0.8-0.8-1.6-1.3-2.4
	c-0.1-0.1-0.1-0.2-0.2-0.3c-1.1-1.9-2.2-3.7-3.4-5.4c-0.1-0.1-0.1-0.2-0.2-0.3c0-0.1-0.1-0.1-0.1-0.2c-0.5-0.7-1-1.5-1.6-2.2
	c-0.2-0.2-0.3-0.4-0.5-0.6c-0.9-1.2-1.8-2.4-2.8-3.5c-1-1.2-2.1-2.3-3.2-3.5c-0.2-0.2-0.3-0.3-0.5-0.5c-0.2-0.2-0.4-0.5-0.7-0.7
	c-0.2-0.2-0.5-0.5-0.7-0.7c-0.7-0.6-1.4-1.3-2.1-1.9c-0.2-0.1-0.3-0.3-0.5-0.4c-0.6-0.5-1.2-1-1.7-1.5c-0.5-0.4-1.1-0.9-1.6-1.3
	c-0.2-0.2-0.5-0.4-0.7-0.6c-0.6-0.5-1.3-1-1.9-1.4c-0.2-0.1-0.3-0.2-0.5-0.3c-0.3-0.2-0.5-0.4-0.8-0.5c-0.4-0.3-0.8-0.5-1.2-0.8
	c-0.7-0.4-1.4-0.9-2.1-1.3c-0.3-0.2-0.6-0.4-0.9-0.5c-0.6-0.3-1.2-0.7-1.8-1c-0.3-0.2-0.6-0.3-0.8-0.5c-0.3-0.2-0.7-0.3-1-0.5
	c-0.2-0.1-0.3-0.2-0.5-0.2c-0.9-0.5-1.9-0.9-2.8-1.3c0,0,0,0-0.1,0s-0.1-0.1-0.2-0.1c-0.7-0.3-1.5-0.7-2.3-1
	c-0.9-0.4-1.8-0.7-2.8-1.1h-0.1c-0.9-0.3-1.8-0.6-2.7-0.9c-0.2-0.1-0.4-0.1-0.6-0.2c-0.1,0-0.3-0.1-0.4-0.1
	c-0.4-0.1-0.9-0.2-1.3-0.4c-0.8-0.2-1.7-0.5-2.6-0.7c-1-0.2-2-0.5-3-0.7c-0.7-0.1-1.3-0.2-2-0.4c-0.4-0.1-0.8-0.1-1.2-0.2
	c-1-0.1-1.9-0.3-2.9-0.4c-0.1,0-0.2,0-0.3,0h-0.1c-0.6-0.1-1.3-0.1-2-0.2c-0.7-0.1-1.3-0.1-2-0.2l0,0c-0.1,0-0.2,0-0.3,0
	c-0.9-0.1-1.9-0.1-2.8-0.1c-0.9,0-1.8,0-2.7,0c-0.2,0-0.4,0-0.6,0c-1,0-1.9,0.1-2.9,0.1c-0.2,0-0.4,0-0.6,0c-0.6,0-1.3,0.1-1.9,0.2
	s-1.2,0.1-1.8,0.2l0,0c-3.4,0.4-6.7,1-10,1.9c-1.1,0.3-2.2,0.6-3.3,1l0,0c-0.1,0-0.2,0.1-0.3,0.1c-2.1,0.7-4.2,1.4-6.2,2.3
	c-0.5,0.2-1,0.4-1.5,0.7c-0.5,0.2-1.1,0.5-1.6,0.7c-0.1,0-0.1,0.1-0.2,0.1c-0.5,0.2-1,0.5-1.4,0.7c-0.4,0.2-0.9,0.4-1.3,0.7
	c-0.1,0-0.1,0.1-0.2,0.1c-0.5,0.3-1.1,0.6-1.6,1c-0.5,0.3-0.9,0.5-1.4,0.8s-1,0.6-1.5,1c-0.6,0.4-1.1,0.7-1.7,1.2
	c-0.4,0.3-0.7,0.6-1.1,0.8c-0.6,0.5-1.3,1-1.9,1.5c-0.1,0.1-0.2,0.1-0.3,0.2c-0.7,0.6-1.3,1.2-1.9,1.9c-0.1,0.1-0.2,0.2-0.3,0.3
	c-0.2,0.2-0.4,0.4-0.6,0.6c0,0,0,0.1-0.1,0.1c-0.9,1-1.7,2.1-2.4,3.2c0,0.1-0.1,0.1-0.1,0.2c-0.3,0.5-0.6,0.9-0.8,1.4
	c-0.1,0.2-0.3,0.5-0.4,0.7c-0.2,0.3-0.4,0.7-0.5,1.1c-0.2,0.3-0.3,0.7-0.4,1c-0.1,0.3-0.3,0.7-0.4,1c-0.1,0.3-0.2,0.6-0.3,1
	c-0.1,0.5-0.3,0.9-0.4,1.4c0,0.1-0.1,0.3-0.1,0.4s0,0.2,0,0.2c-0.1,0.5-0.2,1-0.3,1.5c0,0.3-0.1,0.6-0.1,0.8s0,0.3,0,0.5
	c0,0.3-0.1,0.5-0.1,0.8c0,0.3,0,0.6,0,0.9c0,0.5,0,1,0,1.5c0,0.2,0,0.4,0,0.6c0,0.5,0.1,1.1,0.2,1.6c0,0.2,0,0.4,0.1,0.6
	c0.1,0.5,0.2,1,0.3,1.5c0.1,0.2,0.1,0.5,0.2,0.7c0.1,0.4,0.2,0.8,0.3,1.1c0.1,0.3,0.2,0.7,0.3,1c0.1,0.3,0.2,0.5,0.3,0.7
	c0.2,0.4,0.3,0.9,0.5,1.3c0.1,0.2,0.2,0.4,0.3,0.6c0.2,0.3,0.3,0.7,0.5,1c0,0.1,0.1,0.2,0.1,0.3c0.1,0.2,0.2,0.5,0.4,0.7
	c0.2,0.4,0.4,0.7,0.6,1.1l0.1,0.1l0.1,0.1c0.3,0.5,0.7,1,1,1.5c-0.1,0.1-0.2,0.2-0.3,0.3c-0.6,0.5-1.1,1-1.7,1.4l-0.1,0.1
	c-0.3,0.3-0.7,0.6-1,0.9c-0.5,0.5-1.1,1-1.6,1.5c-0.3,0.3-0.5,0.6-0.8,0.9c-0.6,0.6-1.1,1.2-1.6,1.8c-0.2,0.2-0.4,0.5-0.6,0.8
	c-0.6,0.7-1.1,1.3-1.6,2c-0.2,0.3-0.5,0.7-0.7,1c-0.4,0.5-0.7,1-1.1,1.6c-0.1,0.1-0.1,0.2-0.2,0.3c-0.1,0.1-0.1,0.2-0.2,0.3
	c-0.3,0.4-0.5,0.9-0.8,1.3c-0.3,0.5-0.6,1-0.9,1.5c-0.4,0.7-0.7,1.3-1.1,2c-0.2,0.4-0.4,0.7-0.6,1.1c-0.4,0.8-0.7,1.7-1.1,2.5
	c-0.1,0.3-0.2,0.5-0.3,0.8c-0.3,0.8-0.6,1.6-0.8,2.4c-0.1,0.3-0.2,0.6-0.3,0.9c0,0.1-0.1,0.3-0.1,0.4c-0.1,0.2-0.1,0.4-0.2,0.6
	c-0.1,0.3-0.2,0.7-0.2,1.1c-0.2,0.8-0.4,1.5-0.5,2.3c-0.1,0.3-0.1,0.7-0.2,1c-0.1,0.9-0.3,1.8-0.4,2.8c0,0.4,0,0.7-0.1,1.1
	c-0.1,0.9-0.1,1.7-0.1,2.6c0,0.5,0,1.1,0.1,1.6c0,0.4,0.1,0.9,0.1,1.3c0,0.2,0,0.4,0,0.7c0,0.3,0,0.5,0.1,0.8c0.1,0.5,0.2,1,0.3,1.4
	c0.1,0.4,0.1,0.9,0.2,1.3c0.2,0.9,0.4,1.8,0.7,2.7c0.1,0.4,0.2,0.7,0.3,1c0.3,0.8,0.6,1.6,0.9,2.4c0.2,0.5,0.4,0.9,0.6,1.4
	c0.3,0.7,0.6,1.3,1,2c0.1,0.3,0.3,0.5,0.4,0.8c0.2,0.3,0.3,0.6,0.5,0.8c0.2,0.3,0.3,0.5,0.4,0.8c0.2,0.2,0.3,0.5,0.5,0.7
	c0.4,0.6,0.8,1.2,1.3,1.8c0.3,0.4,0.6,0.8,0.9,1.2c0.4,0.5,0.9,1,1.3,1.5c0.4,0.5,0.9,1,1.3,1.4s0.8,0.8,1.2,1.2
	c0.4,0.4,0.8,0.8,1.2,1.1c0.2,0.2,0.5,0.4,0.8,0.6c0.3,0.3,0.6,0.6,1,0.8c0.2,0.2,0.4,0.4,0.7,0.6c0.2,0.2,0.4,0.3,0.6,0.4
	c0.5,0.4,1,0.7,1.5,1.1c0.5,0.3,1,0.7,1.5,1c0.5,0.3,1,0.6,1.5,0.9c0.5,0.3,1.1,0.6,1.6,0.9c0.5,0.3,1.1,0.5,1.6,0.8
	c0.6,0.3,1.1,0.5,1.7,0.8c0.2,0.1,0.4,0.1,0.5,0.2c0.4,0.1,0.7,0.3,1.1,0.4c0.6,0.2,1.2,0.5,1.9,0.7c0.4,0.2,0.9,0.3,1.3,0.4
	c0.7,0.2,1.4,0.4,2.1,0.6c0.5,0.1,0.9,0.2,1.4,0.4c0.7,0.2,1.4,0.3,2,0.5c0.5,0.1,1,0.2,1.5,0.3c0.7,0.1,1.3,0.2,2,0.3
	c0.1,0,0.2,0,0.3,0c0.4,0.1,0.8,0.1,1.1,0.1c0.5,0.1,1.1,0.2,1.6,0.2c0.2,0,0.3,0,0.4,0c0.6,0,1.1,0.1,1.7,0.1
	c0.6,0,1.2,0.1,1.8,0.1c0.6,0,1.1,0,1.7,0s1.2,0,1.8,0c0.7,0,1.4,0,2-0.1c0.4,0,0.8,0,1.3-0.1c0.1,0,0.2,0,0.3,0
	c0.7,0,1.4-0.1,2.1-0.2c0.3,0,0.6,0,0.9-0.1c0.1,0,0.1,0,0.2,0c0.6-0.1,1.2-0.1,1.8-0.2c0.6-0.1,1.1-0.1,1.7-0.2
	c0.5-0.1,1-0.2,1.5-0.3c0.6-0.1,1.2-0.2,1.9-0.3c0.8-0.2,1.6-0.3,2.3-0.5c0.3-0.1,0.7-0.1,1-0.2h0.1c0.5-0.1,1.1-0.3,1.6-0.4
	s1.1-0.3,1.6-0.4c0.3-0.1,0.6-0.2,0.8-0.3c2-0.6,3.9-1.3,5.8-2.2h0.1c0.5-0.2,1.1-0.5,1.6-0.8c0.5-0.2,1-0.5,1.5-0.7h0.1
	c0,0,0.1,0,0.1-0.1c0.6-0.3,1.2-0.6,1.7-1c0.4-0.2,0.8-0.4,1.2-0.7c0.1,0,0.1-0.1,0.2-0.1c0.3-0.2,0.6-0.4,0.9-0.6
	c0.7-0.4,1.4-0.8,2-1.3c0.2-0.1,0.4-0.3,0.6-0.4c0.7-0.5,1.4-1,2.1-1.5c0.5-0.4,1-0.8,1.4-1.2c0.4-0.3,0.8-0.7,1.2-1l0,0
	c0.1-0.1,0.5-0.5,0.6-0.5c0.8-0.7,1.6-1.5,2.4-2.4c2.8-3,4.8-8.4,0.9-11.4c-4-3.1-9.6,0.8-12.7,3.5l-0.1,0.1
	c-0.2,0.2-0.4,0.3-0.5,0.5c0.1-0.1,0.2-0.2,0.3-0.3l0,0c-0.6,0.5-1.2,1-1.9,1.5c-0.5,0.4-1,0.7-1.5,1.1c-0.2,0.2-0.5,0.3-0.7,0.5
	c-0.5,0.3-1,0.6-1.5,1c-0.3,0.2-0.5,0.3-0.8,0.5c0,0-0.1,0-0.1,0.1c-0.4,0.2-0.7,0.4-1.1,0.6c-0.4,0.2-0.8,0.5-1.3,0.7h-0.1
	c-0.3,0.2-0.7,0.3-1,0.5c-0.4,0.2-0.8,0.4-1.3,0.6c0,0,0,0-0.1,0c-1.5,0.6-3,1.2-4.6,1.7c-0.2,0.1-0.3,0.1-0.5,0.2
	c-0.2,0.1-0.5,0.1-0.7,0.2c-0.7,0.2-1.4,0.4-2.1,0.5c-1.7,0.4-3.4,0.7-5.1,1c-0.1,0-0.2,0-0.3,0.1c-1.7,0.3-3.5,0.5-5.2,0.6
	c-0.2,0-0.3,0-0.5,0c-0.4,0-0.9,0-1.3,0.1c-0.5,0-1,0-1.5,0.1c-0.3,0-0.7,0-1,0c-0.6,0-1.2,0-1.9,0c-0.3,0-0.6,0-0.9,0
	c-0.5,0-1.1-0.1-1.6-0.1c-0.1,0-0.2,0-0.3,0c-0.5,0-0.9-0.1-1.4-0.2c-0.3,0-0.6-0.1-0.9-0.1c-0.6-0.1-1.2-0.2-1.7-0.3
	c-0.3-0.1-0.6-0.1-0.9-0.2c-0.6-0.1-1.1-0.3-1.7-0.4c-0.3-0.1-0.6-0.2-0.9-0.2c-0.5-0.1-1.1-0.3-1.6-0.5c-0.3-0.1-0.7-0.2-1-0.3
	c-0.4-0.2-0.9-0.3-1.3-0.5c-0.4-0.2-0.8-0.3-1.2-0.5c-0.4-0.2-0.8-0.4-1.2-0.6c-0.4-0.2-0.7-0.4-1.1-0.5c-0.4-0.2-0.9-0.5-1.3-0.7
	c-0.3-0.2-0.6-0.4-0.9-0.5c-0.4-0.3-0.8-0.5-1.2-0.8c-0.3-0.2-0.7-0.5-1-0.7c-0.1-0.1-0.3-0.2-0.4-0.3c-0.1-0.1-0.3-0.2-0.4-0.3
	c-0.5-0.4-0.9-0.8-1.4-1.1c-0.2-0.2-0.4-0.4-0.6-0.6c-0.3-0.3-0.7-0.7-1-1c-0.3-0.3-0.6-0.6-0.8-0.9c-0.3-0.3-0.6-0.7-0.9-1.1
	c-0.2-0.3-0.4-0.5-0.6-0.8c-0.3-0.4-0.6-0.9-0.9-1.3c-0.2-0.3-0.4-0.6-0.5-0.8c-0.2-0.3-0.4-0.7-0.6-1c-0.2-0.4-0.5-0.9-0.7-1.4
	c-0.1-0.2-0.2-0.4-0.2-0.5c-0.3-0.6-0.5-1.2-0.7-1.9v-0.1c-0.2-0.7-0.4-1.4-0.5-2.1c0-0.1,0-0.3-0.1-0.4c-0.1-0.4-0.2-0.8-0.2-1.1
	c0-0.2,0-0.4,0-0.6c0-0.4-0.1-0.7-0.1-1.1c0-0.4,0-0.8,0-1.2c0-0.5,0-1.1,0.1-1.6c0-0.2,0-0.5,0-0.7c0.1-0.7,0.1-1.3,0.3-2
	c0-0.1,0-0.3,0.1-0.4c0.1-0.6,0.3-1.2,0.4-1.8c0.1-0.3,0.1-0.6,0.2-0.8c0.1-0.4,0.2-0.8,0.4-1.2c0.2-0.5,0.3-1,0.5-1.5
	c0.1-0.2,0.2-0.4,0.2-0.5c0.3-0.6,0.5-1.3,0.9-1.9c0,0,0-0.1,0.1-0.1c0.4-0.7,0.7-1.4,1.1-2.1c0.1-0.1,0.2-0.3,0.2-0.4
	c0.3-0.5,0.6-1,0.9-1.5c0-0.1,0.1-0.1,0.2-0.2c0.3-0.4,0.6-0.8,0.9-1.2c0.2-0.3,0.4-0.6,0.7-0.9c0.4-0.5,0.7-0.9,1.1-1.4
	c0.2-0.2,0.4-0.5,0.6-0.7c0.4-0.5,0.9-1,1.3-1.4c0.2-0.2,0.3-0.4,0.5-0.5c0.5-0.5,1-1,1.5-1.5c0.1-0.1,0.3-0.3,0.4-0.4
	c0.6-0.5,1.2-1,1.8-1.5c0.1-0.1,0.2-0.2,0.3-0.2c0.5-0.4,1-0.8,1.5-1.2l0,0c0.3,0.1,0.5,0.3,0.8,0.4c0.6,0.3,1.1,0.5,1.7,0.8
	c0.6,0.3,1.3,0.5,1.9,0.7c0.6,0.2,1.2,0.4,1.8,0.6c0.6,0.2,1.3,0.3,1.9,0.5c0.6,0.1,1.2,0.3,1.8,0.4c0.6,0.1,1.2,0.2,1.9,0.3
	c0.4,0,0.7,0.1,1.1,0.2c0.3,0,0.5,0,0.8,0c0.2,0,0.5,0,0.7,0c0.4,0,0.8,0,1.1,0.1c0.6,0,1.2,0,1.8,0c0.7,0,1.4,0,2-0.1
	c0.3,0,0.7,0,1,0c0.3,0,0.6-0.1,0.9-0.1c0.3,0,0.5,0,0.8-0.1c0.1,0,0.1,0,0.2,0l0.9-0.1h0.3h0.2l0.7-0.1c0.2,0,0.5-0.1,0.7-0.2
	c0.4-0.1,0.7-0.2,1.1-0.3c0.3-0.1,0.7-0.2,1-0.3c0.4-0.1,0.8-0.3,1.2-0.5c0.1-0.1,0.3-0.1,0.4-0.2c0.4-0.2,0.9-0.4,1.3-0.6
	c0,0,0.1,0,0.1-0.1c0.2-0.1,0.3-0.2,0.5-0.3c0.2-0.1,0.4-0.2,0.6-0.4c0.2-0.1,0.3-0.2,0.5-0.3c0.2-0.2,0.5-0.3,0.7-0.5
	c0.2-0.2,0.4-0.4,0.6-0.6c0.2-0.2,0.3-0.3,0.5-0.5c0,0,0-0.1,0.1-0.1c0.2-0.2,0.4-0.5,0.6-0.7c0.2-0.2,0.4-0.4,0.5-0.7
	c0.2-0.3,0.4-0.6,0.6-1c0.1-0.2,0.2-0.3,0.3-0.5c0-0.1,0.1-0.2,0.1-0.2v-0.1c0-0.1,0.1-0.1,0.1-0.2c0.5-1.2,0.9-2.6,0.9-3.9l0,0
	c0-0.6,0-1.2-0.1-1.8c0-0.1,0-0.2,0-0.3c-0.1-0.7-0.3-1.4-0.5-2.1s-0.6-1.3-0.9-1.9l-0.1-0.1c-0.3-0.6-0.7-1.1-1.1-1.5
	c-0.4-0.5-0.8-0.9-1.3-1.3c-0.3-0.2-0.5-0.4-0.8-0.6c-0.2-0.1-0.3-0.3-0.5-0.4c-0.3-0.2-0.5-0.3-0.8-0.5c-0.2-0.1-0.4-0.2-0.5-0.3
	c-0.2-0.1-0.5-0.2-0.7-0.3c-0.2-0.1-0.4-0.2-0.5-0.2c0,0-0.1,0-0.1-0.1c-0.1,0-0.1,0-0.2-0.1c-0.3-0.1-0.6-0.2-0.9-0.3
	c-0.3-0.1-0.5-0.2-0.8-0.3c-0.3-0.1-0.7-0.2-1-0.3c-0.4-0.1-0.9-0.2-1.3-0.3c-0.2,0-0.4-0.1-0.6-0.1c-0.1,0-0.3,0-0.4,0
	c-0.6-0.1-1.2-0.1-1.9-0.1h-0.1c-0.1,0-0.2,0-0.3,0c-0.2,0-0.4,0-0.6,0h-0.8c-0.1,0-0.2,0-0.3,0l0,0c-0.9,0-1.8,0.1-2.7,0.2
	c-0.3,0-0.7,0-1,0.1c-0.1,0-0.1,0-0.2,0c-0.2,0-0.4,0.1-0.6,0.1c-1,0.1-1.9,0.3-2.9,0.5h-0.1c-0.1,0-0.2,0-0.3,0.1
	c-0.8,0.2-1.7,0.4-2.5,0.6c-0.3,0.1-0.5,0.1-0.8,0.2c-1,0.3-2,0.6-2.9,1c-0.2,0.1-0.4,0.1-0.5,0.2c-1,0.4-2,0.8-3,1.2
	c-0.1,0-0.2,0.1-0.3,0.1c-0.3,0.1-0.6,0.3-1,0.5l0,0c-0.1-0.1-0.1-0.1-0.2-0.2c-0.2-0.3-0.4-0.6-0.6-0.9c-0.2-0.3-0.4-0.6-0.5-0.9
	c-0.1-0.2-0.2-0.4-0.4-0.6c-0.1-0.1-0.1-0.3-0.2-0.4c-0.1-0.3-0.3-0.6-0.4-0.9c-0.1-0.3-0.2-0.6-0.3-1c-0.1-0.4-0.2-0.7-0.3-1.1
	c0-0.3-0.1-0.5-0.1-0.8c0-0.4-0.1-0.8-0.1-1.2c0-0.3,0-0.5,0-0.7c0-0.4,0.1-0.7,0.1-1c0-0.2,0-0.4,0.1-0.5c0-0.1,0.1-0.1,0.1-0.2
	c0.1-0.3,0.2-0.7,0.3-1c0.1-0.2,0.2-0.5,0.3-0.7c0.2-0.4,0.4-0.8,0.6-1.2c0.1-0.2,0.2-0.4,0.3-0.5c0.3-0.4,0.6-0.8,1-1.3
	c0.1-0.1,0.2-0.3,0.4-0.4c0.4-0.4,0.8-0.8,1.2-1.2c0.1-0.1,0.2-0.2,0.4-0.4l0.1-0.1c0.4-0.3,0.8-0.7,1.2-1c0.3-0.2,0.5-0.4,0.8-0.6
	c0.4-0.3,0.8-0.5,1.2-0.8c0.4-0.2,0.7-0.5,1.1-0.7c0.4-0.2,0.7-0.4,1.1-0.6c0.4-0.2,0.8-0.5,1.3-0.7c0.1-0.1,0.2-0.1,0.3-0.2
	c0.7-0.4,1.3-0.7,2-1.1c0.9-0.4,1.8-0.8,2.7-1.2c0.1,0,0.2-0.1,0.3-0.1c1.6-0.7,3.3-1.3,4.9-1.8c0.1,0,0.2-0.1,0.3-0.1
	c0.9-0.3,1.8-0.5,2.7-0.8c1.1-0.3,2.3-0.5,3.4-0.8c0.1,0,0.1,0,0.2,0c1.2-0.2,2.5-0.4,3.7-0.6c0.2,0,0.4-0.1,0.5-0.1
	c0.5-0.1,1-0.1,1.4-0.1c0.5-0.1,1.1-0.1,1.6-0.1c0.1,0,0.2,0,0.3,0c0.9-0.1,1.7-0.1,2.6-0.1c0.1,0,0.2,0,0.3,0c0.8,0,1.6,0,2.4,0
	c0.9,0,1.7,0.1,2.6,0.1c0.6,0,1.1,0.1,1.7,0.1c0.5,0,1.1,0.1,1.6,0.2l0,0h0.1c0.9,0.1,1.7,0.2,2.6,0.3c0.3,0,0.6,0.1,0.9,0.1
	c0.6,0.1,1.2,0.2,1.8,0.3c0.8,0.2,1.6,0.3,2.4,0.5c0.8,0.2,1.7,0.4,2.5,0.7c0.1,0,0.2,0.1,0.3,0.1c0.5,0.2,1.1,0.3,1.6,0.5
	c0.5,0.2,1.1,0.3,1.6,0.5c0.2,0.1,0.3,0.1,0.4,0.2c0.8,0.3,1.5,0.6,2.3,0.9c0.2,0.1,0.4,0.2,0.5,0.2c0.6,0.2,1.1,0.5,1.7,0.7
	c0.5,0.2,1,0.5,1.5,0.7c0.3,0.1,0.6,0.3,0.9,0.4c0.2,0.1,0.4,0.2,0.6,0.3c0.1,0.1,0.2,0.1,0.3,0.2c1.5,0.8,3,1.7,4.4,2.6
	c0.1,0.1,0.3,0.2,0.4,0.3c0.9,0.6,1.8,1.3,2.7,2c0.7,0.5,1.4,1.1,2.1,1.6c0.8,0.7,1.6,1.4,2.4,2.1c0.6,0.6,1.2,1.1,1.8,1.7
	c0.6,0.6,1.1,1.2,1.7,1.8c0.6,0.6,1.2,1.3,1.8,1.9c1.4,1.7,2.8,3.4,4,5.3c0,0.1,0.1,0.1,0.1,0.2c1,1.5,2,3,2.9,4.6c0,0,0,0,0,0.1
	c0.8,1.5,1.6,3,2.4,4.6c0.1,0.3,0.3,0.6,0.4,1c0.6,1.4,1.2,2.9,1.8,4.4c0.1,0.2,0.1,0.4,0.2,0.5c0.5,1.4,0.9,2.8,1.3,4.2
	c0.2,0.6,0.3,1.1,0.4,1.7c0.4,1.5,0.7,3,0.9,4.5c0,0,0,0,0,0.1c0.3,1.6,0.5,3.2,0.6,4.9c0,0.5,0.1,0.9,0.1,1.4
	c0.1,1.6,0.1,3.2,0.1,4.8c0,1.6-0.1,3.2-0.3,4.8c0,0.5-0.1,0.9-0.1,1.4c-0.2,1.6-0.4,3.2-0.8,4.8v0.1c-0.3,1.6-0.7,3.2-1.2,4.8
	c-0.3,1.3-0.7,2.5-1.1,3.7c0,0,0,0,0,0.1c-0.3,0.8-0.5,1.5-0.8,2.3c-0.6,1.6-1.3,3.2-2,4.7c-0.1,0.1-0.1,0.2-0.2,0.4
	c-0.3,0.5-0.5,1.1-0.8,1.6c-0.2,0.4-0.4,0.8-0.6,1.1c-1.3,2.4-2.7,4.7-4.2,7c-1,1.5-2.1,3-3.2,4.4c-0.1,0.1-0.2,0.2-0.3,0.3
	c-0.2,0.2-0.4,0.5-0.6,0.7c-0.9,1.2-2,2.3-3,3.4c-0.8,0.9-1.7,1.8-2.6,2.6c-0.7,0.7-1.4,1.4-2.1,2c-0.3,0.3-0.6,0.5-0.9,0.8
	c-0.8,0.6-1.5,1.3-2.3,1.9c-1.8,1.4-3.7,2.8-5.6,4c-0.3,0.2-0.6,0.4-0.8,0.6c-1.5,0.9-3,1.8-4.6,2.6c-0.2,0.1-0.4,0.2-0.6,0.3
	c-1.6,0.8-3.2,1.6-4.8,2.3c-0.1,0.1-0.3,0.1-0.4,0.2c-0.9,0.4-1.8,0.8-2.8,1.1c-1.5,0.6-3.1,1.2-4.7,1.7c-0.4,0.1-0.7,0.2-1.1,0.3
	c-0.7,0.2-1.4,0.4-2.1,0.6h-0.1c-3.7,1-7.4,1.8-11.2,2.3c-0.6,0.1-1.2,0.1-1.7,0.2c-1.2,0.2-2.5,0.3-3.7,0.4c-0.3,0-0.6,0.1-0.9,0.1
	c-1,0.1-1.9,0.1-2.9,0.1l0,0c-0.7,0-1.4,0.1-2.1,0.1c-0.3,0-0.5,0-0.8,0c-3.9,0-7.8-0.2-11.7-0.6c-0.1,0-0.2,0-0.3,0
	c-0.8-0.1-1.6-0.2-2.4-0.3c-0.2,0-0.3,0-0.5-0.1c-0.9-0.1-1.8-0.3-2.8-0.4c-1.5-0.3-3.1-0.6-4.6-1c-0.4-0.1-0.7-0.2-1.1-0.2h-0.1
	l0,0c-0.8-0.2-1.6-0.4-2.3-0.7c-0.8-0.2-1.5-0.5-2.3-0.7c-2.1-0.7-4.2-1.4-6.3-2.3c-0.1,0-0.2-0.1-0.3-0.1c-1.7-0.7-3.4-1.5-5.1-2.3
	c-0.4-0.2-0.8-0.5-1.2-0.7c-1.1-0.6-2.2-1.1-3.2-1.7c-0.2-0.1-0.5-0.2-0.7-0.4c-0.5-0.3-0.9-0.6-1.4-1c-1.2-0.8-2.3-1.5-3.4-2.3
	c-3-2.2-5.9-4.7-8.6-7.4c-0.1-0.1-0.2-0.2-0.2-0.2c-1.3-1.3-2.5-2.6-3.7-4l-0.1-0.1c-0.1-0.2-0.3-0.3-0.4-0.5
	c-0.1-0.1-0.2-0.3-0.3-0.4c-0.9-1.2-1.8-2.3-2.7-3.4c-0.1-0.1-0.2-0.3-0.3-0.4c-0.4-0.5-0.7-1-1.1-1.6c-0.4-0.6-0.9-1.3-1.3-2
	c-1.2-1.9-2.3-3.8-3.4-5.8c-0.1-0.2-0.2-0.4-0.3-0.6c-0.8-1.6-1.6-3.3-2.3-4.9c0-0.1-0.1-0.2-0.1-0.3c-3.7-8.7-5.9-18-6.6-27.5
	c0-0.5-0.1-0.9-0.1-1.4c-0.1-1.4-0.1-2.8-0.1-4.1c0-0.2,0-0.5,0-0.7c0-0.7,0-1.3,0.1-2c0-1.2,0-2.4,0.1-3.6c0.1-2,0.3-3.9,0.6-5.8
	c0.4-2.8,1-5.6,1.7-8.4v-0.1c0.2-0.9,0.4-1.8,0.7-2.7c0.3-0.9,0.5-1.7,0.8-2.6c0.1-0.3,0.2-0.5,0.3-0.8c0.6-1.7,1.2-3.3,1.9-5
	c0.5-1.1,0.9-2.3,1.5-3.4c0-0.1,0.1-0.1,0.1-0.2l1.7-3.4c0.2-0.3,0.3-0.6,0.5-0.9c0.3-0.5,0.6-1,0.8-1.5c0.3-0.5,0.6-1,0.9-1.5
	c0.4-0.6,0.7-1.2,1.1-1.7c0.9-1.3,1.8-2.6,2.7-3.9c0.2-0.2,0.3-0.5,0.5-0.7c0.8-1.1,1.7-2.2,2.6-3.3c0.4-0.5,0.8-1,1.2-1.5
	c0.8-0.9,1.6-1.8,2.5-2.7c0.5-0.5,1-1,1.5-1.6c0.7-0.7,1.4-1.4,2.2-2.1c0.9-0.8,1.8-1.6,2.7-2.4c0.2-0.2,0.4-0.3,0.6-0.5
	c1.3-1.1,2.7-2.2,4.1-3.3c0.1-0.1,0.3-0.2,0.4-0.3c1.5-1.1,3-2.1,4.5-3.1l0.1-0.1l0.1-0.1c1.5-1,3.1-1.9,4.7-2.8
	c0.2-0.1,0.4-0.2,0.6-0.4c1.5-0.9,3.1-1.7,4.6-2.5c0.2-0.1,0.3-0.2,0.5-0.2c1.6-0.8,3.2-1.5,4.9-2.2c0.2-0.1,0.3-0.1,0.5-0.2
	c1.7-0.7,3.4-1.3,5.1-1.9c0.1-0.1,0.3-0.1,0.4-0.2c1.8-0.6,3.5-1.2,5.3-1.7c0.1,0,0.2,0,0.2-0.1c5.7-1.6,11.5-2.8,17.5-3.4l0,0
	c0.1,0,0.2,0,0.3-0.1c0.1,0,0.1,0,0.2,0s0.1,0,0.2,0h0.1h0.1c2.1-0.1,4.6,1.9,6.2,3.1c1.3,1.1,2.5,2.2,3.8,3.3
	c1.7,1.8,3.9,2.1,6.3,2.2c0.3,0,0.5,0,0.8,0h0.1c0.1,0,0.2,0,0.4,0c1.5,0,2.9,0,4.4,0c1,0,1.9,0,2.9,0c0.1,0,0.2,0,0.3,0h0.1
	c0.1,0,0.2,0,0.3,0h5.4h0.4h0.4c1.1,0,2-0.9,2-2v-3.5h6.5c1.1,0,2-0.9,2-2v-1c0-1.1-0.9-2-2-2h-6.5v-9h6.8c1.1,0,2-0.9,2-2v-1
	c0-1.1-0.9-2-2-2h-6.8V3.6c0-1.1-0.9-2-2-2h-0.4h-0.4h-5.4H124h-0.1c-0.1,0-0.2,0-0.3,0h-2.9c-1.5,0-2.9,0-4.4,0c-0.1,0-0.2,0-0.4,0
	c-0.1,0-0.1,0-0.2,0c-1.9,0-3.8,0.3-5.4,1.3c-1.8,1.2-3.3,2.8-5,4.2c-1.7,1.4-3.6,2.9-5.9,3.1c-0.8,0.1-1.7,0.1-2.5,0.2H97
	c-0.5,0-0.9,0.1-1.4,0.1c-0.5,0.1-0.9,0.1-1.4,0.2c-0.6,0.1-1.2,0.2-1.8,0.3c-0.9,0.1-1.8,0.2-2.7,0.4l-0.4,0.1
	c-2.1,0.4-4.2,0.8-6.2,1.2l-0.3,0.1c-1.1,0.3-2.2,0.6-3.3,0.8c-0.9,0.2-1.9,0.5-2.8,0.7l-0.4,0.1c-2,0.6-3.9,1.2-5.9,1.9l-0.6,0.2
	c-0.9,0.3-1.8,0.7-2.7,1.1c-0.9,0.4-1.9,0.7-2.8,1.1L63.5,19c-1.7,0.7-3.5,1.5-5.2,2.3c-0.4,0.2-0.7,0.3-1.1,0.5
	c-0.7,0.4-1.4,0.7-2.1,1.1c-1.1,0.6-2.2,1.1-3.3,1.7c-0.1,0.1-0.2,0.1-0.3,0.2c-1.9,1.1-3.7,2.2-5.5,3.3c-0.1,0-0.1,0.1-0.2,0.1
	s-0.1,0.1-0.2,0.1c-0.7,0.4-1.3,0.9-2,1.4c-1,0.7-2.1,1.4-3.1,2.2c-0.2,0.1-0.4,0.3-0.6,0.4c-1.6,1.2-3.2,2.4-4.7,3.7
	c-0.2,0.2-0.5,0.4-0.7,0.6c-0.5,0.4-0.9,0.8-1.3,1.2c-0.6,0.5-1.2,1-1.7,1.6c-0.8,0.8-1.7,1.6-2.5,2.4c-0.6,0.6-1.3,1.3-1.9,2
	c-0.9,1-1.9,2-2.7,3c-0.2,0.2-0.3,0.4-0.5,0.6c-0.4,0.4-0.7,0.9-1.1,1.3c-1,1.2-1.9,2.4-2.9,3.6c-0.3,0.4-0.6,0.8-0.8,1.2
	c-1,1.4-2,2.8-3,4.3c-0.1,0.1-0.1,0.2-0.2,0.3c-0.8,1.2-1.5,2.4-2.2,3.6c-0.3,0.5-0.6,1.1-0.9,1.7c-0.9,1.6-1.7,3.2-2.4,4.8
	c-0.1,0.2-0.2,0.3-0.3,0.5l0,0C10,69,9.9,69.4,9.7,69.8c-0.5,1.1-1,2.2-1.4,3.3c-0.5,1.2-0.9,2.3-1.4,3.5c-0.4,1-0.7,2.1-1.1,3.1
	c-0.3,0.9-0.5,1.7-0.8,2.6c-0.2,0.7-0.4,1.5-0.6,2.2c-0.1,0.6-0.3,1.1-0.4,1.7c-0.7,3-1.4,6.1-1.8,9.1l0,0c0,0.1,0,0.1,0,0.2
	l-0.7,6.4c-0.1,1.5-0.2,3-0.2,4.5c0,0.7,0,1.5,0,2.2c0,0.3,0,0.6,0,1c0,1.5,0,3,0.1,4.5c0,0.4,0,0.8,0.1,1.2c0,0.3,0,0.6,0.1,0.9
	c0.1,1.9,0.3,3.8,0.5,5.7c0,0,0,0,0,0.1s0,0.1,0,0.2c0.6,4.3,1.4,8.7,2.6,12.9c1.2,4.3,2.6,8.5,4.4,12.6c1.7,4.1,3.8,8.1,6.1,11.9
	c2.3,3.8,4.9,7.5,7.8,10.9c0.2,0.2,0.3,0.4,0.5,0.6c0.1,0.1,0.2,0.3,0.4,0.4l0.1,0.1c1.4,1.6,2.9,3.2,4.4,4.8
	c0.1,0.1,0.1,0.1,0.2,0.2c1.2,1.2,2.5,2.3,3.7,3.4c0.4,0.3,0.8,0.7,1.2,1.1l0.3,0.2c1.6,1.4,3.3,2.7,5,4l3.1,2.1
	c0.4,0.2,0.7,0.5,1.1,0.7c0.5,0.3,0.9,0.7,1.4,1c0.1,0.1,0.2,0.1,0.3,0.2c0.2,0.1,0.4,0.2,0.7,0.4c1.6,0.9,3.2,1.8,4.8,2.6
	c0.2,0.1,0.4,0.2,0.6,0.3c1.3,0.7,2.7,1.2,4,1.8c2.8,1.2,5.6,2.4,8.5,3.3l0.4,0.1c1.2,0.4,2.5,0.7,3.7,1.1c0.8,0.2,1.7,0.5,2.5,0.8
	l0,0h0.1c0.6,0.2,1.3,0.3,1.9,0.4c0.1,0,0.3,0.1,0.4,0.1c1.1,0.2,2.2,0.5,3.3,0.7c0.3,0.1,0.6,0.1,0.9,0.2c1.2,0.2,2.5,0.4,3.7,0.5
	c0.9,0.1,1.8,0.3,2.7,0.4c0.1,0,0.2,0,0.3,0c3.4,0.4,6.8,0.5,10.2,0.6c1.1,0,2.2,0.1,3.3,0.1c0.1,0,0.2,0,0.3,0
	c1.9,0,3.8-0.1,5.8-0.2c0.3,0,0.6,0,0.9-0.1c0.9-0.1,1.8-0.1,2.7-0.3c1.5-0.2,3.1-0.4,4.6-0.6c2.9-0.5,5.8-1,8.7-1.7
	c1.3-0.3,2.6-0.6,3.9-1l0.3-0.1c0.4-0.1,0.7-0.2,1.1-0.3l2.8-0.8l2.3-0.7l2.1-0.9l0.2-0.1l3.4-1.4l0.6-0.2c0.6-0.2,1.2-0.5,1.9-0.8
	c0.3-0.2,0.6-0.3,1-0.5l2.1-1.1c0.4-0.2,0.8-0.4,1.2-0.6l1.5-0.8l0.4-0.2l0.2-0.1l0.9-0.5c0,0,0.1,0,0.1-0.1
	c0.4-0.2,0.9-0.5,1.3-0.8c0.1,0,0.1-0.1,0.2-0.1c0.3-0.2,0.6-0.4,0.9-0.6c0.7-0.5,1.4-1,2.1-1.4l1.5-1c0.9-0.6,1.7-1.1,2.5-1.8l0,0
	l0,0l1.4-1.1l2.9-2.4l1-0.8c0.2-0.1,0.3-0.3,0.5-0.5c0.6-0.5,1.2-1.1,1.7-1.6c0.9-0.9,1.8-1.8,2.7-2.7c0.8-0.8,1.7-1.6,2.4-2.5
	l2.2-2.6c0.2-0.3,0.5-0.6,0.7-0.9c0.1-0.1,0.2-0.3,0.3-0.4c1.3-1.6,2.4-3.2,3.6-4.9c0.1-0.1,0.1-0.2,0.2-0.2
	c0.1-0.1,0.1-0.2,0.1-0.2c1.7-2.6,3.4-5.3,4.8-8c0.2-0.4,0.5-0.9,0.7-1.3c0.3-0.6,0.6-1.2,0.9-1.9c0-0.1,0.1-0.1,0.1-0.2
	c0.1-0.2,0.1-0.3,0.2-0.5c0.8-1.8,1.6-3.6,2.3-5.5c0.3-0.9,0.7-1.8,1-2.7c0-0.1,0.1-0.2,0.1-0.2c0.4-1.2,0.8-2.5,1.2-3.8
	c0.2-0.7,0.4-1.4,0.6-2c0.1-0.4,0.2-0.7,0.3-1.1c0.1-0.4,0.2-0.9,0.3-1.3c0.2-0.7,0.3-1.4,0.5-2.1c0.1-0.7,0.3-1.5,0.4-2.2
	c0.1-0.3,0.1-0.6,0.2-1c0.2-1.2,0.3-2.4,0.5-3.6c0.1-1.1,0.2-2.1,0.3-3.2v-0.1c0.1-1.1,0.1-2.2,0.1-3.4v-0.1
	C188.5,118.7,188.5,118.6,188.5,118.4z"/>
</svg>
